<svg width="745" height="986" viewBox="0 0 745 986" xmlns="http://www.w3.org/2000/svg"><title>Trial 2</title><g fill="none" fill-rule="evenodd"><path d="M390.91 596.47L373 607 123 460l93 11 61.44-153.86L300 310.28l-17-8.104V287l17-7.517V210l-19.785-9.72L373 47l93.077 153.764L446 210v68.31l17.332 8.69v15.178L446 310.282l22.653 6.857 9.87 12.167L530 471l93-11-115.91 68.156 20.036-11.86-63.164-182.77-40.71-8.596-33.012-3.708.67 275.247zM330 192l27-3v79.61l-27 2.903V192zm59-2.312l21.488 1.565 17.63 3.35L446 200v78l-19-4-16-3-22-3v-78.312zM389 275l22 3 16 3 19 3 13.597 5v10L446 294l-19-3-16-3-22-3v-10z" fill="#242424"/><path fill="#292929" d="M123 494.61l250 351.08 250-351.528-250 146.61"/><path fill="#252525" d="M446 437l27 3 16.153 68.892L452.72 515"/></g></svg>