<?xml version="1.0" encoding="UTF-8" standalone="no"?>
<svg width="745px" height="986px" viewBox="0 0 745 986" version="1.1" xmlns="http://www.w3.org/2000/svg" xmlns:xlink="http://www.w3.org/1999/xlink">
    <!-- Generator: Sketch 3.8.3 (29802) - http://www.bohemiancoding.com/sketch -->
    <title>Trial 2</title>
    <desc>Created with Sketch.</desc>
    <defs></defs>
    <g id="Page-1" stroke="none" stroke-width="1" fill="none" fill-rule="evenodd">
        <g id="Trial-2">
            <path d="M390.909326,596.469316 L373,607 L123,460 L216,471 L277.439148,317.13916 L300,310.282379 L283,302.177948 L283,287 L300,279.483047 L300,210 L280.215248,200.28041 L373,47 L466.077439,200.76393 L446,210 L446,278.310226 L463.331848,287 L463.331848,302.177948 L446,310.282379 L468.652802,317.13916 L478.522705,329.30719 L530,471 L623,460 L507.089018,528.155657 L527.125806,516.295402 L463.962116,333.526712 L423.251843,324.930435 L390.240317,321.222058 L390.909326,596.469316 Z M330,192 L357,189 L357,268.60957 L330,271.512863 L330,192 Z M389,189.688247 L410.488133,191.252972 L428.117292,194.602938 L446,200 L446,278 L427,274 L411,271 L389,268 L389,189.688247 Z M389,275 L411,278 L427,281 L446,284 L459.596725,289 L459.596725,299 L446,294 L427,291 L411,288 L389,285 L389,275 Z" id="Combined-Shape" fill="#242424"></path>
            <polygon id="Path-2" fill="#292929" points="123 494.609133 373 845.690933 623 494.161529 373 640.770738"></polygon>
            <polygon id="Path-3" fill="#252525" points="446 437 473 440 489.152973 508.892067 452.721081 515"></polygon>
        </g>
    </g>
</svg>